<svg width="90" height="73" viewBox="0 0 90 73" fill="none" xmlns="http://www.w3.org/2000/svg">
<path d="M71.5005 72.64C64.0125 72.64 58.3485 69.568 54.5085 63.424C51.2445 58.24 49.6125 51.904 49.6125 44.416C49.6125 34.816 52.0125 26.176 56.8125 18.496C61.8045 10.816 69.2925 4.67199 79.2765 0.063982L81.8685 5.24798C75.9165 7.74399 70.7325 11.68 66.3165 17.056C62.0925 22.432 59.9805 27.904 59.9805 33.472C59.9805 35.776 60.2685 37.792 60.8445 39.52C63.9165 37.024 67.4685 35.776 71.5005 35.776C76.6845 35.776 81.0045 37.504 84.4605 40.96C88.1085 44.224 89.9325 48.64 89.9325 54.208C89.9325 59.392 88.1085 63.808 84.4605 67.456C81.0045 70.912 76.6845 72.64 71.5005 72.64ZM22.5405 72.64C15.0525 72.64 9.3885 69.568 5.5485 63.424C2.2845 58.24 0.652501 51.904 0.652501 44.416C0.652501 34.816 3.0525 26.176 7.8525 18.496C12.8445 10.816 20.3325 4.67199 30.3165 0.063982L32.9085 5.24798C26.9565 7.74399 21.7725 11.68 17.3565 17.056C13.1325 22.432 11.0205 27.904 11.0205 33.472C11.0205 35.776 11.3085 37.792 11.8845 39.52C14.9565 37.024 18.5085 35.776 22.5405 35.776C27.7245 35.776 32.0445 37.504 35.5005 40.96C39.1485 44.224 40.9725 48.64 40.9725 54.208C40.9725 59.392 39.1485 63.808 35.5005 67.456C32.0445 70.912 27.7245 72.64 22.5405 72.64Z" fill="#FB850E"/>
</svg>
